<svg width="64" height="64" fill="none" xmlns="http://www.w3.org/2000/svg"><mask id="a" fill="#fff"><path d="M0 32C0 14.327 14.327 0 32 0c17.673 0 32 14.327 32 32 0 17.673-14.327 32-32 32C14.327 64 0 49.673 0 32z"/></mask><path d="M0 32C0 14.327 14.327 0 32 0c17.673 0 32 14.327 32 32 0 17.673-14.327 32-32 32C14.327 64 0 49.673 0 32z" fill="#0A0E1A" fill-opacity=".8"/><path d="M32 64v-.667C14.695 63.333.667 49.305.667 32H-.667C-.667 50.041 13.96 64.667 32 64.667V64zm32-32h-.667c0 17.305-14.028 31.333-31.333 31.333v1.334c18.041 0 32.667-14.626 32.667-32.667H64zM32 0v.667C49.305.667 63.333 14.695 63.333 32h1.334C64.667 13.959 50.04-.667 32-.667V0zm0 0v-.667C13.959-.667-.667 13.96-.667 32H.667C.667 14.695 14.695.667 32 .667V0z" fill="#FFE9B5" mask="url(#a)"/><path d="M21 45.12V16h23v29.12c0 1.682-2.07 2.505-3.258 1.308l-8.242-8-8.242 8.038c-.27.258-.613.432-.984.501a1.962 1.962 0 01-1.105-.115 1.906 1.906 0 01-.853-.693A1.835 1.835 0 0121 45.12z" fill="#FFE9B5"/></svg>